<svg xmlns="http://www.w3.org/2000/svg" xmlns:xlink="http://www.w3.org/1999/xlink" fill="none" version="1.1" width="512" height="512" viewBox="0 0 512 512"><defs><clipPath id="master_svg0_8_93"><rect x="0" y="0" width="512" height="512" rx="27"/></clipPath><clipPath id="master_svg1_8_0"><rect x="0" y="0" width="512" height="512" rx="0"/></clipPath><mask id="master_svg2_8_6" style="mask-type:alpha" maskUnits="objectBoundingBox"><g><g><rect x="139.43699645996094" y="245.2429962158203" width="40.0723991394043" height="33.88399887084961" rx="0" fill="#FFFFFF" fill-opacity="1" style="mix-blend-mode:passthrough"/></g><g><path d="M145.14999537109375,274.5719930419922L140.64300537109375,274.0739930419922L143.61199537109374,247.2209930419922L148.11900537109375,247.71899404199218L146.92199537109374,258.5449930419922L177.11300537109375,261.88299304199217L176.53600537109375,267.1009930419922L146.34500537109375,263.7629930419922L145.14999537109375,274.5719930419922Z" fill="#000000" fill-opacity="1" style="mix-blend-mode:passthrough"/></g></g></mask><mask id="master_svg3_8_06" style="mask-type:alpha" maskUnits="objectBoundingBox"><g><g><rect x="147.05299377441406" y="199.7209930419922" width="48.6796989440918" height="47.77330017089844" rx="0" fill="#FFFFFF" fill-opacity="1" style="mix-blend-mode:passthrough"/></g><g><path d="M148.9810028076172,229.6589940185547L151.6320028076172,224.2959940185547L169.9000028076172,223.1549940185547L170.0660028076172,222.8189940185547L159.8820028076172,207.6100040185547L162.53400280761718,202.2469940185547L175.9290028076172,222.9979940185547L188.2140028076172,229.07199401855468L185.8870028076172,233.7779940185547L173.6020028076172,227.70399401855468L148.9810028076172,229.6589940185547Z" fill="#000000" fill-opacity="1" style="mix-blend-mode:passthrough"/></g></g></mask><mask id="master_svg4_8_12" style="mask-type:alpha" maskUnits="objectBoundingBox"><g><g><rect x="172.8280029296875" y="169.80499267578125" width="43.635398864746094" height="44.02299880981445" rx="0" fill="#FFFFFF" fill-opacity="1" style="mix-blend-mode:passthrough"/></g><g><path d="M199.02299658203125,211.83799829101562L174.90899658203125,186.59599829101563L190.56099658203124,171.64199829101562L193.69299658203124,174.92100829101562L181.84899658203125,186.23599829101562L189.19599658203126,193.92699829101562L199.91899658203124,183.68299829101562L203.03899658203125,186.9489982910156L192.31699658203127,197.1929982910156L202.83099658203125,208.19899829101564L199.02299658203125,211.83799829101562Z" fill="#000000" fill-opacity="1" style="mix-blend-mode:passthrough"/></g></g></mask><mask id="master_svg5_8_18" style="mask-type:alpha" maskUnits="objectBoundingBox"><g><g><rect x="205.71800231933594" y="144.1959991455078" width="46.917301177978516" height="47.945098876953125" rx="0" fill="#FFFFFF" fill-opacity="1" style="mix-blend-mode:passthrough"/></g><g><path d="M227.31100634765625,188.09800268554687L222.19199634765624,190.34400268554688L219.66900634765625,153.33000268554687L225.24099634765625,150.88400268554688L250.77200634765626,177.8040026855469L245.65200634765625,180.05000268554687L225.13499634765626,157.85499268554688L224.88600634765626,157.96499268554686L227.31100634765625,188.09800268554687ZM222.67700634765626,175.20300268554686L239.28500634765624,167.91500268554688L241.06600634765624,171.97400268554688L224.45799634765626,179.26100268554688L222.67700634765626,175.20300268554686Z" fill="#000000" fill-opacity="1" style="mix-blend-mode:passthrough"/></g></g></mask><mask id="master_svg6_8_24" style="mask-type:alpha" maskUnits="objectBoundingBox"><g><g><rect x="257.8840026855469" y="133.19000244140625" width="34.315799713134766" height="38.98350143432617" rx="0" fill="#FFFFFF" fill-opacity="1" style="mix-blend-mode:passthrough"/></g><g><path d="M287.90300366210937,134.406005859375L290.1500036621094,169.243005859375L285.3200036621094,169.555005859375L265.9639936621094,145.148005859375L265.6409936621094,145.169005859375L267.2890036621094,170.718005859375L262.0329936621094,171.057005859375L259.7850036621094,136.220005859375L264.64999366210935,135.906995859375L284.0250036621094,160.346005859375L284.34800366210936,160.325005859375L282.6980036621094,134.742004859375L287.90300366210937,134.406005859375Z" fill="#000000" fill-opacity="1" style="mix-blend-mode:passthrough"/></g></g></mask></defs><g clip-path="url(#master_svg0_8_93)"><rect x="0" y="0" width="512" height="512" rx="27" fill="#FFFFFF" fill-opacity="1"/><g clip-path="url(#master_svg1_8_0)"><g><g><path d="M145.14999537109375,274.5719930419922L140.64300537109375,274.0739930419922L143.61199537109374,247.2209930419922L148.11900537109375,247.71899404199218L146.92199537109374,258.5449930419922L177.11300537109375,261.88299304199217L176.53600537109375,267.1009930419922L146.34500537109375,263.7629930419922L145.14999537109375,274.5719930419922Z" fill="#2A5CBF" fill-opacity="1" style="mix-blend-mode:passthrough"/></g><g mask="url(#master_svg2_8_6)"><g><path d="M145.14999328613283,274.57200439453123L145.0399932861328,275.56600439453126L146.0339932861328,275.6760043945313L146.14399328613283,274.68200439453125L145.14999328613283,274.57200439453123ZM140.64300328613282,274.07400439453124L139.64999428613282,273.96400439453123L139.5399932861328,274.95800439453126L140.5339962861328,275.0680043945313L140.64300328613282,274.07400439453124ZM143.61200328613282,247.22099439453126L143.7220032861328,246.22700539453126L142.7279932861328,246.11700439453125L142.61799328613282,247.11099239453125L143.61200328613282,247.22099439453126ZM148.11900328613282,247.71899439453125L149.11300328613282,247.82899439453124L149.2230032861328,246.83500639453126L148.2290032861328,246.72500639453125L148.11900328613282,247.71899439453125ZM146.92199328613282,258.54500439453125L145.92799328613282,258.43500439453123L145.8179932861328,259.42900439453126L146.8119932861328,259.5390043945313L146.92199328613282,258.54500439453125ZM177.11299328613282,261.88300439453127L178.10699328613282,261.9930043945312L178.2169932861328,260.99900439453126L177.2229932861328,260.88900439453124L177.11299328613282,261.88300439453127ZM176.53599328613282,267.10100439453123L176.4259932861328,268.09500439453126L177.4199932861328,268.2050043945313L177.52999328613282,267.21100439453124L176.53599328613282,267.10100439453123ZM146.34500328613282,263.76300439453127L146.4550032861328,262.76900439453124L145.4610032861328,262.6590043945313L145.35099328613282,263.65300439453125L146.34500328613282,263.76300439453127ZM145.2599932861328,273.57800439453126L140.7530032861328,273.0800043945313L140.5339962861328,275.0680043945313L145.0399932861328,275.56600439453126L145.2599932861328,273.57800439453126ZM141.63699328613282,274.18400439453126L144.60600328613282,247.33099439453125L142.61799328613282,247.11099239453125L139.64999428613282,273.96400439453123L141.63699328613282,274.18400439453126ZM143.5020032861328,248.21499439453126L148.0090032861328,248.71299439453125L148.2290032861328,246.72500639453125L143.7220032861328,246.22700539453126L143.5020032861328,248.21499439453126ZM147.12500328613282,247.60899439453124L145.92799328613282,258.43500439453123L147.91600328613282,258.65500439453126L149.11300328613282,247.82899439453124L147.12500328613282,247.60899439453124ZM146.8119932861328,259.5390043945313L177.0029932861328,262.87700439453124L177.2229932861328,260.88900439453124L147.0319932861328,257.5510043945313L146.8119932861328,259.5390043945313ZM176.11899328613282,261.77300439453126L175.54199328613282,266.9910043945313L177.52999328613282,267.21100439453124L178.10699328613282,261.9930043945312L176.11899328613282,261.77300439453126ZM176.6459932861328,266.10700439453126L146.4550032861328,262.76900439453124L146.2350032861328,264.75700439453124L176.4259932861328,268.09500439453126L176.6459932861328,266.10700439453126ZM145.35099328613282,263.65300439453125L144.1560032861328,274.46300439453125L146.14399328613283,274.68200439453125L147.33900328613282,263.8730043945312L145.35099328613282,263.65300439453125Z" fill="#2A5CBF" fill-opacity="1" style="mix-blend-mode:passthrough"/></g></g><g><path d="M148.9810028076172,229.6589940185547L151.6320028076172,224.2959940185547L169.9000028076172,223.1549940185547L170.0660028076172,222.8189940185547L159.8820028076172,207.6100040185547L162.53400280761718,202.2469940185547L175.9290028076172,222.9979940185547L188.2140028076172,229.07199401855468L185.8870028076172,233.7779940185547L173.6020028076172,227.70399401855468L148.9810028076172,229.6589940185547Z" fill="#2A5CBF" fill-opacity="1" style="mix-blend-mode:passthrough"/></g><g mask="url(#master_svg3_8_06)"><g><path d="M148.98100377441406,229.6589990234375L148.08399977441405,229.2159990234375L147.30299377441406,230.7959990234375L149.05999377441407,230.6559990234375L148.98100377441406,229.6589990234375ZM151.63200377441407,224.2959990234375L151.57000377441406,223.2979990234375L150.99200377441406,223.3339990234375L150.73599377441406,223.8529990234375L151.63200377441407,224.2959990234375ZM169.89999377441407,223.1549990234375L169.96199377441405,224.1529990234375L170.53999377441406,224.1169990234375L170.79599377441406,223.5979990234375L169.89999377441407,223.1549990234375ZM170.06599377441407,222.8189990234375L170.96199377441405,223.2619990234375L171.21899377441406,222.7429990234375L170.89699377441406,222.2619990234375L170.06599377441407,222.8189990234375ZM159.88199377441407,207.6099990234375L158.98599377441406,207.1670090234375L158.72899377441405,207.6860090234375L159.05099377441405,208.1670090234375L159.88199377441407,207.6099990234375ZM162.53399377441406,202.2469890234375L163.37399377441406,201.7049990234375L162.41799377441407,200.2239990234375L161.63699377441407,201.8039990234375L162.53399377441406,202.2469890234375ZM175.92899377441407,222.9979990234375L175.08899377441406,223.5399990234375L175.23799377441406,223.7719990234375L175.48599377441406,223.8949990234375L175.92899377441407,222.9979990234375ZM188.21399377441406,229.0719990234375L189.10999377441408,229.5149990234375L189.55299377441406,228.6189990234375L188.65699377441405,228.1759990234375L188.21399377441406,229.0719990234375ZM185.88699377441407,233.7779990234375L185.44399377441405,234.6749990234375L186.33999377441407,235.1179990234375L186.78299377441405,234.2209990234375L185.88699377441407,233.7779990234375ZM173.60199377441407,227.7039990234375L174.04499377441405,226.8079990234375L173.79799377441407,226.6859990234375L173.52299377441406,226.7069990234375L173.60199377441407,227.7039990234375ZM149.87700377441405,230.1029990234375L152.52900377441406,224.7389990234375L150.73599377441406,223.8529990234375L148.08399977441405,229.2159990234375L149.87700377441405,230.1029990234375ZM151.69500377441406,225.2939990234375L169.96199377441405,224.1529990234375L169.83699377441405,222.1569990234375L151.57000377441406,223.2979990234375L151.69500377441406,225.2939990234375ZM170.79599377441406,223.5979990234375L170.96199377441405,223.2619990234375L169.16899377441405,222.3749990234375L169.00299377441405,222.7119990234375L170.79599377441406,223.5979990234375ZM170.89699377441406,222.2619990234375L160.71299377441406,207.0539990234375L159.05099377441405,208.1670090234375L169.23499377441405,223.3749990234375L170.89699377441406,222.2619990234375ZM160.77799377441406,208.0539990234375L163.42999377441407,202.6899990234375L161.63699377441407,201.8039990234375L158.98599377441406,207.1670090234375L160.77799377441406,208.0539990234375ZM161.69399377441405,202.7899890234375L175.08899377441406,223.5399990234375L176.76899377441407,222.4559990234375L163.37399377441406,201.7049990234375L161.69399377441405,202.7899890234375ZM175.48599377441406,223.8949990234375L187.77099377441408,229.9689990234375L188.65699377441405,228.1759990234375L176.37199377441405,222.1019990234375L175.48599377441406,223.8949990234375ZM187.31699377441407,228.6289990234375L184.99099377441405,233.3349990234375L186.78299377441405,234.2209990234375L189.10999377441408,229.5149990234375L187.31699377441407,228.6289990234375ZM186.32999377441405,232.88199902343752L174.04499377441405,226.8079990234375L173.15899377441406,228.6009990234375L185.44399377441405,234.6749990234375L186.32999377441405,232.88199902343752ZM173.52299377441406,226.7069990234375L148.90100377441405,228.6619990234375L149.05999377441407,230.6559990234375L173.68099377441405,228.7009990234375L173.52299377441406,226.7069990234375Z" fill="#2A5CBF" fill-opacity="1" style="mix-blend-mode:passthrough"/></g></g><g><path d="M199.02299658203125,211.83799829101562L174.90899658203125,186.59599829101563L190.56099658203124,171.64199829101562L193.69299658203124,174.92100829101562L181.84899658203125,186.23599829101562L189.19599658203126,193.92699829101562L199.91899658203124,183.68299829101562L203.03899658203125,186.9489982910156L192.31699658203127,197.1929982910156L202.83099658203125,208.19899829101564L199.02299658203125,211.83799829101562Z" fill="#2A5CBF" fill-opacity="1" style="mix-blend-mode:passthrough"/></g><g mask="url(#master_svg4_8_12)"><g><path d="M199.0229951171875,211.8379968261719L198.2999951171875,212.5279968261719L198.9909951171875,213.25099682617187L199.7139951171875,212.56099682617187L199.0229951171875,211.8379968261719ZM174.9089951171875,186.59599682617187L174.2180021171875,185.87299682617189L173.4949951171875,186.5639968261719L174.1860051171875,187.28699682617187L174.9089951171875,186.59599682617187ZM190.5609951171875,171.64199682617186L191.2849951171875,170.95100382617187L190.5939951171875,170.22799682617188L189.8709951171875,170.91900682617188L190.5609951171875,171.64199682617186ZM193.6929951171875,174.92100682617186L194.3839951171875,175.64399682617187L195.1069951171875,174.95300682617187L194.4169951171875,174.22999682617188L193.6929951171875,174.92100682617186ZM181.84899511718748,186.23599682617188L181.15800511718749,185.51299682617187L180.4349951171875,186.20399682617187L181.1260051171875,186.9269968261719L181.84899511718748,186.23599682617188ZM189.1959951171875,193.9269968261719L188.4729951171875,194.61799682617186L189.1639951171875,195.34099682617187L189.8869951171875,194.64999682617187L189.1959951171875,193.9269968261719ZM199.9189951171875,183.6829968261719L200.6419951171875,182.99199682617189L199.9519951171875,182.26899682617187L199.2279951171875,182.95999682617187L199.9189951171875,183.6829968261719ZM203.0389951171875,186.94899682617188L203.7299951171875,187.67199682617186L204.4529951171875,186.98099682617186L203.7629951171875,186.25799682617188L203.0389951171875,186.94899682617188ZM192.3169951171875,197.19299682617188L191.6259951171875,196.46999682617187L190.90299511718752,197.16099682617187L191.5939951171875,197.88399682617188L192.3169951171875,197.19299682617188ZM202.8309951171875,208.19899682617188L203.5219951171875,208.9219968261719L204.2449951171875,208.23199682617187L203.5539951171875,207.50799682617188L202.8309951171875,208.19899682617188ZM199.7459951171875,211.14699682617186L175.6320051171875,185.90499682617187L174.1860051171875,187.28699682617187L198.2999951171875,212.5279968261719L199.7459951171875,211.14699682617186ZM175.5989951171875,187.31899682617188L191.2519951171875,172.36500682617188L189.8709951171875,170.91900682617188L174.2180021171875,185.87299682617189L175.5989951171875,187.31899682617188ZM189.8379951171875,172.33299682617186L192.9699951171875,175.61099682617188L194.4169951171875,174.22999682617188L191.2849951171875,170.95100382617187L189.8379951171875,172.33299682617186ZM193.0029951171875,174.19799682617187L181.15800511718749,185.51299682617187L182.5399951171875,186.95899682617187L194.3839951171875,175.64399682617187L193.0029951171875,174.19799682617187ZM181.1260051171875,186.9269968261719L188.4729951171875,194.61799682617186L189.9189951171875,193.23599682617188L182.5720051171875,185.54499682617188L181.1260051171875,186.9269968261719ZM189.8869951171875,194.64999682617187L200.6099951171875,184.40599682617187L199.2279951171875,182.95999682617187L188.5059951171875,193.20399682617187L189.8869951171875,194.64999682617187ZM199.1959951171875,184.3739968261719L202.3159951171875,187.63999682617188L203.7629951171875,186.25799682617188L200.6419951171875,182.99199682617189L199.1959951171875,184.3739968261719ZM202.34899511718748,186.22599682617187L191.6259951171875,196.46999682617187L193.0069951171875,197.91599682617186L203.7299951171875,187.67199682617186L202.34899511718748,186.22599682617187ZM191.5939951171875,197.88399682617188L202.1079951171875,208.88999682617188L203.5539951171875,207.50799682617188L193.03999511718752,196.50199682617188L191.5939951171875,197.88399682617188ZM202.14099511718752,207.47599682617187L198.3319951171875,211.11399682617187L199.7139951171875,212.56099682617187L203.5219951171875,208.9219968261719L202.14099511718752,207.47599682617187Z" fill="#2A5CBF" fill-opacity="1" style="mix-blend-mode:passthrough"/></g></g><g><path d="M227.31100634765625,188.09800268554687L222.19199634765624,190.34400268554688L219.66900634765625,153.33000268554687L225.24099634765625,150.88400268554688L250.77200634765626,177.8040026855469L245.65200634765625,180.05000268554687L225.13499634765626,157.85499268554688L224.88600634765626,157.96499268554686L227.31100634765625,188.09800268554687ZM222.67700634765626,175.20300268554686L239.28500634765624,167.91500268554688L241.06600634765624,171.97400268554688L224.45799634765626,179.26100268554688L222.67700634765626,175.20300268554686Z" fill="#2A5CBF" fill-opacity="1" style="mix-blend-mode:passthrough"/></g><g mask="url(#master_svg5_8_18)"><g><path d="M227.3110010986328,188.09800463867188L227.71300109863282,189.01400463867188L228.3650010986328,188.72700463867187L228.30800109863281,188.01800463867187L227.3110010986328,188.09800463867188ZM222.1920010986328,190.3440046386719L221.1940010986328,190.41200463867187L221.29100109863282,191.8320046386719L222.5939910986328,191.2600046386719L222.1920010986328,190.3440046386719ZM219.6690110986328,153.33000463867188L219.26699809863283,152.41400463867188L218.6230010986328,152.69599463867186L218.67100529863282,153.3979946386719L219.6690110986328,153.33000463867188ZM225.2410010986328,150.88400463867188L225.9669910986328,150.19599963867188L225.48300109863283,149.68600463867188L224.83900109863282,149.9689946386719L225.2410010986328,150.88400463867188ZM250.7720010986328,177.80400463867187L251.17300109863282,178.7190046386719L252.47600109863282,178.14800463867186L251.4970010986328,177.11600463867188L250.7720010986328,177.80400463867187ZM245.6520010986328,180.05000463867188L244.91800109863283,180.72900463867188L245.4010010986328,181.25200463867188L246.05400109863282,180.96600463867188L245.6520010986328,180.05000463867188ZM225.1349910986328,157.85499463867188L225.86999109863282,157.17599463867188L225.38600109863282,156.6530046386719L224.7339910986328,156.94000463867187L225.1349910986328,157.85499463867188ZM224.88600109863282,157.96499463867187L224.4839910986328,157.04899463867187L223.83200109863282,157.33500463867188L223.8890110986328,158.04499463867188L224.88600109863282,157.96499463867187ZM222.67700109863281,175.20300463867187L222.27499109863282,174.28700463867187L221.3600010986328,174.68900463867186L221.76100109863282,175.6050046386719L222.67700109863281,175.20300463867187ZM239.28500109863282,167.91500463867186L240.20100109863282,167.51400463867188L239.7990010986328,166.59800463867188L238.8830010986328,167.00000463867187L239.28500109863282,167.91500463867186ZM241.06600109863282,171.9740046386719L241.4670010986328,172.88900463867188L242.3830010986328,172.48800463867187L241.98100109863282,171.57200463867187L241.06600109863282,171.9740046386719ZM224.45799109863282,179.26100463867186L223.54201109863283,179.66300463867188L223.9440010986328,180.57900463867188L224.8600010986328,180.17700463867186L224.45799109863282,179.26100463867186ZM226.91000109863282,187.18200463867188L221.7899910986328,189.42900463867187L222.5939910986328,191.2600046386719L227.71300109863282,189.01400463867188L226.91000109863282,187.18200463867188ZM223.1889910986328,190.27600463867188L220.66600109863282,153.26199463867187L218.67100529863282,153.3979946386719L221.1940010986328,190.41200463867187L223.1889910986328,190.27600463867188ZM220.07100109863282,154.24499463867187L225.64300109863282,151.80000463867188L224.83900109863282,149.9689946386719L219.26699809863283,152.41400463867188L220.07100109863282,154.24499463867187ZM224.51601109863282,151.57299463867187L250.04600109863281,178.4920046386719L251.4970010986328,177.11600463867188L225.9669910986328,150.19599963867188L224.51601109863282,151.57299463867187ZM250.37000109863283,176.88800463867187L245.25000109863282,179.13400463867188L246.05400109863282,180.96600463867188L251.17300109863282,178.7190046386719L250.37000109863283,176.88800463867187ZM246.38600109863282,179.37100463867188L225.86999109863282,157.17599463867188L224.4010010986328,158.53399463867189L244.91800109863283,180.72900463867188L246.38600109863282,179.37100463867188ZM224.7339910986328,156.94000463867187L224.4839910986328,157.04899463867187L225.2870010986328,158.88099463867187L225.5370010986328,158.77099463867188L224.7339910986328,156.94000463867187ZM223.8890110986328,158.04499463867188L226.31500109863282,188.17800463867187L228.30800109863281,188.01800463867187L225.88200109863283,157.88499463867188L223.8890110986328,158.04499463867188ZM223.0789910986328,176.11900463867187L239.6870010986328,168.83100463867189L238.8830010986328,167.00000463867187L222.27499109863282,174.28700463867187L223.0789910986328,176.11900463867187ZM238.36900109863282,168.31700463867188L240.1500010986328,172.37600463867187L241.98100109863282,171.57200463867187L240.20100109863282,167.51400463867188L238.36900109863282,168.31700463867188ZM240.6640010986328,171.0580046386719L224.0560010986328,178.34500463867187L224.8600010986328,180.17700463867186L241.4670010986328,172.88900463867188L240.6640010986328,171.0580046386719ZM225.3739910986328,178.85900463867188L223.5930010986328,174.80100463867188L221.76100109863282,175.6050046386719L223.54201109863283,179.66300463867188L225.3739910986328,178.85900463867188Z" fill="#2A5CBF" fill-opacity="1" style="mix-blend-mode:passthrough"/></g></g><g><path d="M287.90300366210937,134.406005859375L290.1500036621094,169.243005859375L285.3200036621094,169.555005859375L265.9639936621094,145.148005859375L265.6409936621094,145.169005859375L267.2890036621094,170.718005859375L262.0329936621094,171.057005859375L259.7850036621094,136.220005859375L264.64999366210935,135.906995859375L284.0250036621094,160.346005859375L284.34800366210936,160.325005859375L282.6980036621094,134.742004859375L287.90300366210937,134.406005859375Z" fill="#2A5CBF" fill-opacity="1" style="mix-blend-mode:passthrough"/></g><g mask="url(#master_svg6_8_24)"><g><path d="M287.9029919433594,134.406004140625L288.9009919433594,134.341995140625L288.8359919433594,133.343994140625L287.83899194335936,133.408004740625L287.9029919433594,134.406004140625ZM290.1499919433594,169.242994140625L290.2149919433594,170.240994140625L291.2129919433594,170.176994140625L291.1479919433594,169.178994140625L290.1499919433594,169.242994140625ZM285.31999194335935,169.554994140625L284.53599194335936,170.175994140625L284.86099194335935,170.585994140625L285.3839919433594,170.552994140625L285.31999194335935,169.554994140625ZM265.96399194335936,145.147994140625L266.7470119433594,144.526994140625L266.42200194335936,144.115994140625L265.8989819433594,144.149994140625L265.96399194335936,145.147994140625ZM265.6409919433594,145.168994140625L265.5759919433594,144.170994140625L264.57800194335937,144.234994140625L264.64300194335937,145.232994140625L265.6409919433594,145.168994140625ZM267.2890019433594,170.717994140625L267.35299194335937,171.715994140625L268.35101194335937,171.651994140625L268.2869919433594,170.653994140625L267.2890019433594,170.717994140625ZM262.0329919433594,171.056994140625L261.03500194335936,171.121994140625L261.0990019433594,172.118994140625L262.09698194335937,172.054994140625L262.0329919433594,171.056994140625ZM259.78500194335936,136.220004140625L259.7210079433594,135.223004140625L258.7229919433594,135.287004140625L258.7869873433594,136.285004140625L259.78500194335936,136.220004140625ZM264.6499919433594,135.906994140625L265.4339919433594,135.285004140625L265.1080019433594,134.875004140625L264.58600194335935,134.908994140625L264.6499919433594,135.906994140625ZM284.0249919433594,160.345994140625L283.2419919433594,160.966994140625L283.56699194335937,161.377994140625L284.0899919433594,161.343994140625L284.0249919433594,160.345994140625ZM284.3479919433594,160.324994140625L284.4129919433594,161.32299414062498L285.41099194335936,161.258994140625L285.34599194335937,160.260994140625L284.3479919433594,160.324994140625ZM282.6979919433594,134.742004140625L282.6329919433594,133.744003140625L281.6359919433594,133.809006140625L281.69999194335935,134.807004140625L282.6979919433594,134.742004140625ZM286.9049919433594,134.470994140625L289.1529919433594,169.306994140625L291.1479919433594,169.178994140625L288.9009919433594,134.341995140625L286.9049919433594,134.470994140625ZM290.0859919433594,168.244994140625L285.25499194335936,168.556994140625L285.3839919433594,170.552994140625L290.2149919433594,170.240994140625L290.0859919433594,168.244994140625ZM286.10299194335937,168.932994140625L266.7470119433594,144.526994140625L265.17999194335937,145.768994140625L284.53599194335936,170.175994140625L286.10299194335937,168.932994140625ZM265.8989819433594,144.149994140625L265.5759919433594,144.170994140625L265.70498194335937,146.166994140625L266.0280119433594,146.145994140625L265.8989819433594,144.149994140625ZM264.64300194335937,145.232994140625L266.2909819433594,170.781994140625L268.2869919433594,170.653994140625L266.6390119433594,145.103994140625L264.64300194335937,145.232994140625ZM267.22500194335936,169.719994140625L261.9679919433594,170.058994140625L262.09698194335937,172.054994140625L267.35299194335937,171.715994140625L267.22500194335936,169.719994140625ZM263.0310019433594,170.992994140625L260.7829919433594,136.156004140625L258.7869873433594,136.285004140625L261.03500194335936,171.121994140625L263.0310019433594,170.992994140625ZM259.85000194335936,137.218004140625L264.7149919433594,136.904994140625L264.58600194335935,134.908994140625L259.7210079433594,135.223004140625L259.85000194335936,137.218004140625ZM263.86700194335936,136.528004140625L283.2419919433594,160.966994140625L284.8089919433594,159.724994140625L265.4339919433594,135.285004140625L263.86700194335936,136.528004140625ZM284.0899919433594,161.343994140625L284.4129919433594,161.32299414062498L284.28399194335935,159.326994140625L283.9609919433594,159.347994140625L284.0899919433594,161.343994140625ZM285.34599194335937,160.260994140625L283.6959919433594,134.677994140625L281.69999194335935,134.807004140625L283.3499919433594,160.389994140625L285.34599194335937,160.260994140625ZM282.76199194335936,135.740004140625L287.9669919433594,135.404004140625L287.83899194335936,133.408004740625L282.6329919433594,133.744003140625L282.76199194335936,135.740004140625Z" fill="#2A5CBF" fill-opacity="1" style="mix-blend-mode:passthrough"/></g></g><g><path d="M322.61499768066403,155.15899658203125C336.31199768066404,163.80599658203124,348.1469976806641,175.15799658203125,357.3719976806641,188.55899658203126C368.552997680664,204.79999658203124,375.55599768066406,223.54799658203126,377.7609976806641,243.14299658203123C379.96599768066403,262.7369965820312,377.30399768066405,282.57299658203124,370.0119976806641,300.8929965820313C362.71999768066405,319.2129965820312,351.0219976806641,335.45199658203126,335.95499768066406,348.17099658203125C320.8869976806641,360.88999658203124,302.9159976806641,369.69799658203124,283.6319976806641,373.81199658203127C264.3479976806641,377.9269965820313,244.34699768066406,377.22199658203124,225.39999768066406,371.7609965820312C206.45399768066406,366.29899658203124,189.14599768066407,356.24999658203126,175.01099768066405,342.5019965820312C166.64899768066405,334.36799658203125,159.55000768066407,325.08899658203126,153.90699768066406,314.97599658203126C155.74899768066408,317.59199658203124,157.72099768066406,320.14899658203126,159.82200768066406,322.6379965820313C200.17799768066408,370.44299658203124,273.0579976806641,375.25099658203123,322.59899768066407,333.42899658203123C372.1409976806641,291.60799658203126,379.63099768066405,218.95499658203124,339.27499768066406,171.14999658203124C334.19999768066407,165.13699658203126,328.60999768066404,159.80499658203124,322.61499768066403,155.15899658203125Z" fill="#2A5CBF" fill-opacity="1" style="mix-blend-mode:passthrough"/><path d="M322.30899768066405,155.55420858203124Q331.41299768066403,162.60947658203125,338.89299768066405,171.47249658203125Q353.69199768066403,189.00239658203125,360.18199768066404,210.93459658203125Q366.451997680664,232.12059658203125,364.1509976806641,254.48229658203127Q361.850997680664,276.84599658203126,351.33699768066407,296.9199965820312Q340.45299768066405,317.70299658203123,322.2759976806641,333.0469965820313Q304.100997680664,348.3909965820312,281.7859976806641,355.6339965820313Q260.23199768066405,362.62999658203125,237.79919768066407,361.14499658203124Q215.36709768066407,359.6599965820312,195.53469768066407,349.92399658203124Q175.00129768066407,339.84399658203125,160.20408768066406,322.31499658203126Q157.08246768066405,318.6169965820312,154.31581968066405,314.68799658203125L148.81305768066406,306.87299658203125L153.47037268066407,315.2199965820313Q162.04582768066408,330.5879965820312,174.66239768066407,342.8599965820313Q196.27969768066407,363.88699658203126,225.26149768066406,372.24099658203124Q254.24399768066405,380.5949965820313,283.73599768066407,374.30099658203125Q313.2279976806641,368.0089965820313,336.27799768066404,348.55299658203126Q359.321997680664,329.0979965820312,370.47699768066406,301.07799658203123Q381.6299976806641,273.05799658203125,378.25799768066406,243.08709658203125Q374.88499768066407,213.11649658203126,357.7839976806641,188.27549658203125Q343.77699768066407,167.92689658203125,322.8819976806641,154.73619958203125L314.09699768066406,149.18997658203125L322.30899768066405,155.55420858203124ZM361.1409976806641,210.65079658203126Q354.59099768066403,188.51769658203125,339.65699768066406,170.82739658203124Q335.33299768066405,165.70379658203126,330.470997680664,161.17877658203125Q345.8859976806641,172.75489658203125,356.95999768066406,188.84249658203126Q373.9199976806641,213.47739658203125,377.26399768066403,243.19889658203124Q380.60899768066406,272.9199965820312,369.54699768066405,300.7079965820312Q358.48599768066407,328.49599658203124,335.6319976806641,347.78899658203125Q312.773997680664,367.08199658203125,283.52799768066404,373.32299658203124Q254.27999768066405,379.5639965820312,225.53849768066408,371.28099658203126Q196.79759768066407,362.99499658203126,175.35959768066405,342.14399658203126Q166.16399768066407,333.1989965820312,159.13306768066406,322.5949965820313Q159.28559768066407,322.7779965820313,159.43992768066406,322.96099658203127Q174.37239768066405,340.64899658203126,195.09409768066405,350.82199658203126Q215.10389768066406,360.64499658203124,237.73309768066406,362.1429965820313Q260.35699768066405,363.63999658203124,282.0939976806641,356.58499658203124Q304.595997680664,349.28099658203126,322.92199768066405,333.81099658203124Q341.24799768066407,318.34099658203127,352.2229976806641,297.3839965820313Q362.82599768066405,277.13899658203127,365.1459976806641,254.58469658203126Q367.46699768066406,232.02649658203126,361.1409976806641,210.65079658203126Z" fill-rule="evenodd" fill="#2A5CBF" fill-opacity="1" style="mix-blend-mode:passthrough"/></g><g><path d="M230.96942578125,261.2002952910156Q219.36342578125,264.92805829101565,211.90642578125,268.2695882910156L211.90602578125,268.2697782910156Q203.00541578125,272.2575982910156,199.29687878125,275.98659829101564Q191.41358578125,283.91409829101565,192.06698578125,295.9046982910156Q192.71742578125,307.8408982910156,201.77163578125,316.84619829101564Q210.82622578125,325.8499982910156,222.76512578125,326.4352982910156Q234.75952578125,327.02319829101566,242.64422578125,319.0953982910156Q246.37252578125,315.34599829101563,250.67562578125,306.7181982910156Q254.35872578125,299.33299829101566,258.50062578125,288.2880982910156Q262.44222578125,277.77529829101564,267.19872578125,262.7853782910156L271.38612578125003,249.58899829101563L258.04512578125,253.28993829101563Q240.11872578125,258.26295829101565,230.96942578125,261.2002952910156ZM209.93312578125,286.56339829101563Q211.67852578125,284.80839829101564,218.03952578125,281.9583982910156L218.04002578125,281.9581982910156Q224.74002578125,278.9558982910156,235.55652578125,275.4816982910156Q240.61512578125001,273.85769829101565,248.53352578125,271.56629829101564Q246.38712578125,277.8697982910156,244.45542578125,283.02189829101565Q240.58752578125,293.3360982910156,237.25232578125,300.0237982910156Q234.02962578125,306.4853982910156,232.00782578125,308.5185982910156Q228.82932578125,311.7144982910156,223.49952578125,311.4531982910156Q217.31652578125,311.1501982910156,212.34832578125,306.2097982910156Q207.38160578125,301.26989829101564,207.04476578125,295.08849829101564Q206.75440578125,289.7599982910156,209.93312578125,286.56339829101563Z" fill-rule="evenodd" fill="#2A5CBF" fill-opacity="1" style="mix-blend-mode:passthrough"/></g><g><path d="M307.8815995117187,253.97242851562498L307.88199951171873,253.972228515625Q316.7807995117187,249.985128515625,320.48979951171873,246.255828515625Q328.3740995117188,238.328328515625,327.72039951171877,226.337128515625Q327.06969951171874,214.401228515625,318.01559951171873,205.396088515625Q308.96189951171874,196.392158515625,297.02249951171876,195.806628515625Q285.0278995117188,195.218398515625,277.14529951171875,203.144136515625Q273.41659951171874,206.891788515625,269.11132951171874,215.523828515625Q265.42534951171876,222.914928515625,261.2876695117188,233.953228515625Q257.34621951171874,244.462028515625,252.58825951171875,259.45662851562497L248.40099951171874,272.652628515625L261.74168951171873,268.952128515625Q279.65549951171874,263.983128515625,288.81719951171874,261.041828515625Q300.42289951171875,257.314728515625,307.8815995117187,253.97242851562498ZM309.8541995117188,235.678228515625Q308.10769951171875,237.434328515625,301.74839951171873,240.283628515625L301.7479995117188,240.283728515625Q295.04659951171874,243.286728515625,284.23069951171874,246.760228515625Q279.16679951171875,248.38592851562498,271.25359951171873,250.675828515625Q273.4005995117187,244.371328515625,275.33229951171876,239.220828515625Q279.19699951171873,228.910728515625,282.53469951171877,222.218128515625Q285.75849951171875,215.754328515625,287.77869951171874,213.723828515625Q290.9578995117188,210.527238515625,296.28779951171873,210.788628515625Q302.47089951171876,211.091858515625,307.43829951171875,216.031928515625Q312.4055995117187,220.972328515625,312.74259951171877,227.153628515625Q313.0330995117188,232.481928515625,309.8541995117188,235.678228515625Z" fill-rule="evenodd" fill="#2A5CBF" fill-opacity="1" style="mix-blend-mode:passthrough"/></g></g></g></g></svg>